<?xml version="1.0" standalone="no"?>
<!DOCTYPE svg PUBLIC "-//W3C//DTD SVG 20010904//EN"
 "http://www.w3.org/TR/2001/REC-SVG-20010904/DTD/svg10.dtd">
<svg version="1.0" xmlns="http://www.w3.org/2000/svg"
 width="571.000000pt" height="1280.000000pt" viewBox="0 0 571.000000 1280.000000"
 preserveAspectRatio="xMidYMid meet">
<metadata>
Created by potrace 1.15, written by Peter Selinger 2001-2017
</metadata>
<g transform="translate(0.000000,1280.000000) scale(0.100000,-0.100000)"
fill="#000000" stroke="none">
<path d="M1573 12720 c-103 -24 -215 -116 -264 -217 -19 -39 -24 -68 -27 -153
-3 -92 1 -125 32 -265 83 -372 127 -550 175 -707 100 -330 148 -567 190 -953
25 -224 73 -525 108 -670 14 -61 88 -276 166 -485 217 -583 267 -764 267 -972
l0 -98 -35 0 c-29 0 -40 7 -72 47 -93 115 -147 164 -222 201 -71 35 -80 37
-170 36 -87 0 -104 -3 -182 -36 -196 -80 -283 -175 -330 -355 -24 -97 -26
-286 -3 -388 27 -117 28 -116 -38 -131 -76 -18 -139 -50 -217 -113 -115 -92
-149 -158 -158 -306 -2 -49 -13 -117 -24 -150 -10 -33 -29 -132 -42 -220 -21
-142 -22 -166 -11 -215 7 -30 13 -85 14 -122 0 -37 5 -79 11 -95 18 -47 13
-266 -9 -370 -22 -106 -18 -149 24 -270 22 -66 25 -88 20 -143 -9 -82 10 -246
63 -545 43 -242 86 -369 203 -600 240 -475 290 -582 314 -669 14 -50 34 -125
46 -166 17 -59 22 -104 22 -215 1 -128 -1 -146 -25 -210 -68 -181 -98 -279
-119 -385 -48 -257 -96 -453 -146 -605 -45 -136 -184 -521 -224 -620 -6 -16
-52 -145 -100 -285 -49 -140 -112 -320 -140 -400 -29 -80 -87 -253 -130 -385
-42 -132 -96 -286 -119 -343 -22 -56 -41 -111 -41 -122 0 -20 12 -20 1453 -20
l1452 0 33 142 c19 79 38 153 42 165 5 12 16 51 25 85 18 70 152 493 191 603
14 39 43 120 66 180 22 61 56 151 74 200 30 83 69 183 114 295 59 146 81 205
108 295 58 189 171 660 191 800 51 341 134 637 256 920 94 217 185 497 225
697 19 93 21 132 19 482 -2 355 0 387 19 466 61 248 65 443 17 720 -14 80 -28
197 -31 260 -7 120 -3 157 42 420 21 123 27 194 30 345 3 275 13 371 69 720
13 83 31 213 41 290 9 77 31 196 49 265 100 384 191 688 267 895 47 127 93
253 101 280 39 123 96 382 112 505 19 153 44 284 80 415 13 50 36 137 50 195
14 58 48 170 75 250 54 161 112 428 135 620 35 295 5 429 -126 561 -104 105
-227 145 -363 119 -152 -29 -240 -135 -359 -435 -63 -156 -119 -343 -143 -474
-47 -248 -89 -373 -238 -703 -41 -93 -116 -268 -167 -390 -50 -123 -103 -245
-117 -273 -36 -72 -100 -224 -217 -518 -203 -508 -290 -609 -551 -643 -64 -8
-117 17 -184 86 -112 115 -188 338 -330 965 -90 397 -131 557 -175 680 -108
303 -176 500 -200 577 -13 46 -36 121 -50 168 -14 47 -48 186 -75 310 -28 124
-70 293 -95 375 -24 83 -53 188 -65 235 -88 354 -194 501 -409 564 -57 17
-190 20 -248 6z"/>
</g>
</svg>
